<svg id="Ebene_1" data-name="Ebene 1" xmlns="http://www.w3.org/2000/svg" viewBox="0 0 251.63 40.74"><defs><style>.cls-1{fill:#fff;}</style></defs><title>TheTVDB</title><path class="cls-1" d="M11.7,40V7.5H0V0H31.92V7.5H20.28V40H11.7Z"/><path class="cls-1" d="M56.1,40V22.38c0-4-2.1-5.28-5.4-5.28a8.44,8.44,0,0,0-6.6,3.42V40H36.48V0H44.1V14.82a13.41,13.41,0,0,1,10.2-4.5c6.36,0,9.42,3.48,9.42,9.12V40H56.1Z"/><path class="cls-1" d="M68.16,25.5c0-8.4,6.18-15.18,15-15.18,8.64,0,14.52,6.48,14.52,16V28H76.14c0.48,3.66,3.42,6.72,8.34,6.72a12.34,12.34,0,0,0,7.74-2.88l3.36,4.92c-2.88,2.64-7.44,4-11.94,4C74.82,40.74,68.16,34.8,68.16,25.5Zm15-9.12A7,7,0,0,0,76,22.8H90.3A6.71,6.71,0,0,0,83.16,16.38Z"/><path class="cls-1" d="M107.76,40V7.5H96.06V0H128V7.5H116.34V40h-8.58Z"/><path class="cls-1" d="M146.94,40L131.46,0h9.72l11.1,30.78L163.32,0H173L157.62,40H146.94Z"/><path class="cls-1" d="M176.76,40V0h15.78c12.54,0,21.24,8,21.24,20s-8.7,20-21.24,20H176.76Zm28.32-20c0-7.08-4.32-12.54-12.54-12.54h-7.26v25h7.26C200.46,32.52,205.08,26.82,205.08,20Z"/><path class="cls-1" d="M218.28,40V0h21.06c7.62,0,11.52,4.86,11.52,10.2,0,5-3.12,8.4-6.9,9.18,4.26,0.66,7.68,4.8,7.68,9.84,0,6-4,10.8-11.64,10.8H218.28ZM242.16,11.7c0-2.52-1.8-4.38-4.68-4.38H226.8V16h10.68C240.36,16,242.16,14.22,242.16,11.7ZM242.94,28c0-2.52-1.8-4.68-5.16-4.68h-11v9.3h11C241,32.64,242.94,30.9,242.94,28Z"/></svg>